<?xml version="1.0" encoding="UTF-8"?> <svg xmlns="http://www.w3.org/2000/svg" xmlns:xlink="http://www.w3.org/1999/xlink" version="1.1" id="Layer_1" x="0px" y="0px" viewBox="0 0 677.9 457" style="enable-background:new 0 0 677.9 457;" xml:space="preserve"> <style type="text/css"> .st0{fill:#FB5050;} .st1{fill:#FFCACA;} .st2{fill:#3E4959;} .st3{fill:#FFFFFF;} .st4{fill:#FC9595;} .st5{fill:#F2F2F2;} .st6{fill:#CCCBCA;} .st7{fill-rule:evenodd;clip-rule:evenodd;fill:#FB5050;} .st8{fill:#E6E5E5;} .st9{fill:#242D3C;} .st10{fill:#4D4D4D;} </style> <g> <g> <g> <path class="st0" d="M94.6,406.3V100.4c0-4.1,1.6-8.2,4.7-11.4c3.1-3.1,7.3-4.7,11.4-4.7h450.7c4.1,0,8.2,1.6,11.4,4.7 c3.1,3.1,4.7,7.3,4.7,11.4v305.8H94.6z"></path> <rect x="121.4" y="111.2" class="st1" width="429.2" height="268.3"></rect> <g> <path class="st2" d="M342.8,97.8c0,3.7-3.1,6.7-6.7,6.7c-3.7,0-6.7-3-6.7-6.7c0-3.7,3-6.7,6.7-6.7 C339.7,91.1,342.8,94.1,342.8,97.8z"></path> <path class="st3" d="M338.8,97.8c0,1.5-1.2,2.7-2.7,2.7c-1.5,0-2.7-1.2-2.7-2.7c0-1.5,1.2-2.7,2.7-2.7 C337.6,95.1,338.8,96.3,338.8,97.8z"></path> </g> </g> <g> <rect x="41" y="406.3" class="st4" width="590.2" height="10.8"></rect> <path class="st4" d="M631.2,417c0,4.8-1.8,9.6-5.5,13.3c-3.6,3.7-8.4,5.5-13.3,5.5H59.7c-4.8,0-9.6-1.8-13.3-5.5 c-3.7-3.7-5.5-8.5-5.5-13.3l0,0H631.2L631.2,417z"></path> <rect x="282.4" y="406.3" class="st4" width="107.3" height="5.4"></rect> </g> </g> <g> <rect x="192.5" y="19.2" class="st5" width="287.1" height="360.2"></rect> <g> <rect x="230.7" y="300.7" class="st6" width="210.7" height="13.5"></rect> <rect x="230.7" y="273.7" class="st6" width="210.7" height="13.5"></rect> <rect x="230.7" y="246.6" class="st6" width="210.7" height="13.5"></rect> <rect x="230.7" y="219.6" class="st6" width="210.7" height="13.5"></rect> <rect x="230.7" y="192.6" class="st6" width="210.7" height="13.5"></rect> <rect x="230.7" y="165.5" class="st6" width="210.7" height="13.5"></rect> <rect x="336.1" y="138.5" class="st6" width="105.4" height="13.5"></rect> <rect x="336.1" y="111.5" class="st6" width="105.4" height="13.5"></rect> <rect x="336.1" y="84.4" class="st6" width="105.4" height="13.5"></rect> <g> <rect x="336.1" y="57.4" class="st6" width="105.4" height="13.5"></rect> </g> <rect x="230.7" y="327.7" class="st6" width="210.7" height="13.5"></rect> </g> <g> <g> <polygon class="st0" points="281.6,57.4 274.4,57.4 272.3,67.9 283.7,67.9 "></polygon> <polygon class="st0" points="257.5,62 251.2,65.5 254.7,75.6 264.5,70 "></polygon> <polygon class="st0" points="238.8,78 235.2,84.2 243.2,91.2 248.9,81.4 "></polygon> <polygon class="st0" points="230.7,101.1 230.7,108.3 241.1,110.4 241.1,99 "></polygon> <polygon class="st0" points="235.2,125.3 238.8,131.5 248.9,128.1 243.2,118.2 "></polygon> <polygon class="st0" points="251.2,143.9 257.5,147.5 264.5,139.5 254.7,133.8 "></polygon> <polygon class="st0" points="274.4,152 281.6,152 283.7,141.6 272.3,141.6 "></polygon> <polygon class="st0" points="298.6,147.5 304.8,143.9 301.4,133.8 291.5,139.5 "></polygon> <polygon class="st0" points="317.2,131.5 320.8,125.3 312.8,118.2 307.1,128.1 "></polygon> <polygon class="st0" points="325.3,108.3 325.3,101.1 314.9,99 314.9,110.4 "></polygon> <polygon class="st0" points="320.8,84.2 317.2,78 307.1,81.4 312.8,91.2 "></polygon> <polygon class="st0" points="304.8,65.5 298.6,62 291.5,70 301.4,75.6 "></polygon> </g> <path class="st0" d="M278,67.4c-20.6,0-37.3,16.7-37.3,37.3c0,20.6,16.7,37.3,37.3,37.3c20.6,0,37.3-16.7,37.3-37.3 C315.3,84.1,298.6,67.4,278,67.4z M278,122.6c-9.9,0-17.9-8-17.9-17.9c0-9.9,8-17.9,17.9-17.9c9.9,0,17.9,8,17.9,17.9 C295.9,114.6,287.9,122.6,278,122.6z"></path> </g> </g> <g> <rect x="401.1" y="165.5" class="st7" width="40.4" height="213.9"></rect> <polygon class="st8" points="401.1,165.5 421.3,125 441.4,165.5 "></polygon> <polygon class="st9" points="421.3,125 414.5,138.5 428,138.5 "></polygon> </g> <g> <g> <rect x="131.2" y="192.6" class="st10" width="163.6" height="94.6"></rect> <polygon class="st10" points="152.3,308.2 152.3,287.2 173.3,287.2 "></polygon> </g> <g> <rect x="152.3" y="213.6" class="st3" width="121.6" height="10.5"></rect> <rect x="152.3" y="234.6" class="st3" width="121.6" height="10.5"></rect> <rect x="152.3" y="255.7" class="st3" width="60.8" height="10.5"></rect> </g> </g> <g> <g> <rect x="510.3" y="57.4" class="st5" width="120.9" height="120.9"></rect> <polygon class="st5" points="605.1,204.4 579.1,178.3 605.1,178.3 "></polygon> </g> <g> <rect x="536.9" y="111.1" class="st9" width="13.5" height="13.5"></rect> <rect x="564" y="111.1" class="st9" width="13.5" height="13.5"></rect> <rect x="591" y="111.1" class="st9" width="13.5" height="13.5"></rect> </g> </g> </g> </svg> 